<?xml version="1.0" encoding="UTF-8" standalone="no"?>
<!-- Created with Inkscape (http://www.inkscape.org/) -->

<svg
   width="255.57704"
   height="419.30093"
   viewBox="0 0 255.57705 419.30092"
   version="1.1"
   id="svg1"
   inkscape:version="1.4 (e7c3feb1, 2024-10-09)"
   sodipodi:docname="Logo.svg"
   xmlns:inkscape="http://www.inkscape.org/namespaces/inkscape"
   xmlns:sodipodi="http://sodipodi.sourceforge.net/DTD/sodipodi-0.dtd"
   xmlns="http://www.w3.org/2000/svg"
   xmlns:svg="http://www.w3.org/2000/svg">
  <sodipodi:namedview
     id="namedview1"
     pagecolor="#ffffff"
     bordercolor="#000000"
     borderopacity="0.25"
     inkscape:showpageshadow="2"
     inkscape:pageopacity="0.0"
     inkscape:pagecheckerboard="0"
     inkscape:deskcolor="#d1d1d1"
     inkscape:document-units="px"
     showgrid="false"
     inkscape:zoom="2.2216922"
     inkscape:cx="336.23019"
     inkscape:cy="103.07458"
     inkscape:window-width="2304"
     inkscape:window-height="1227"
     inkscape:window-x="3470"
     inkscape:window-y="204"
     inkscape:window-maximized="0"
     inkscape:current-layer="layer1">
    <inkscape:grid
       id="grid1"
       units="px"
       originx="-621.03467"
       originy="-39.680534"
       spacingx="1"
       spacingy="1"
       empcolor="#0099e5"
       empopacity="0.30196078"
       color="#0099e5"
       opacity="0.14901961"
       empspacing="5"
       enabled="true"
       visible="false" />
    <inkscape:page
       x="0"
       y="0"
       width="255.57706"
       height="419.30093"
       id="page26"
       margin="0"
       bleed="0" />
  </sodipodi:namedview>
  <defs
     id="defs1" />
  <g
     inkscape:label="Layer 1"
     inkscape:groupmode="layer"
     id="layer1"
     style="display:inline"
     transform="translate(-621.03461,-39.680537)">
    <g
       id="g81"
       inkscape:label="Top"
       transform="translate(9.2538401,9.25384)">
      <g
         id="g75"
         inkscape:label="Surface">
        <path
           id="path71"
           style="fill:#007b9c;fill-opacity:1;fill-rule:evenodd;stroke:#000000;stroke-width:1;stroke-linecap:round;stroke-linejoin:round;stroke-miterlimit:2.6;stroke-dasharray:none;stroke-opacity:1;paint-order:markers stroke fill"
           d="m 745.75522,35.998778 a 118.37321,118.37321 0 0 0 -118.37305,118.373052 118.37321,118.37321 0 0 0 4.16407,30.44922 h 89.65625 a 39.135632,39.135632 0 0 1 -14.58399,-30.44922 39.135632,39.135632 0 0 1 39.13672,-39.13477 39.135632,39.135632 0 0 1 39.13477,39.13477 39.135632,39.135632 0 0 1 -14.58399,30.44922 h 89.65817 a 118.37321,118.37321 0 0 0 4.1641,-30.44922 A 118.37321,118.37321 0 0 0 745.75522,35.998778 Z" />
        <path
           id="path72"
           style="fill:#007fc4;fill-opacity:1;stroke:#000000;stroke-width:1;stroke-linecap:square;stroke-linejoin:bevel;stroke-miterlimit:2.6;stroke-dasharray:none;stroke-opacity:1;paint-order:markers stroke fill"
           d="m 744.10547,44.039062 c -1.11918,0.02128 -2.08166,0.04896 -3.19922,0.09375 -0.97852,0.04951 -2.22023,0.116062 -3.29896,0.201701 -8.66423,0.632431 -17.24374,2.333359 -25.51549,4.981893 -1.02475,0.336509 -2.29559,0.759414 -3.40453,1.155268 -3.68514,1.313078 -7.2991,2.822663 -10.82985,4.506842 -0.46002,0.234205 -1.22969,0.597461 -1.81083,0.893884 -13.25556,6.667942 -25.12888,16.059343 -34.6755,27.418616 -0.39203,0.488608 -1.00072,1.199103 -1.4679,1.789553 -11.03571,13.682192 -18.79462,30.010251 -22.25866,47.253411 -0.0942,0.51662 -0.26393,1.37536 -0.38707,2.02311 -0.55315,2.94934 -0.9833,6.04989 -1.27308,8.95736 -0.2208,2.16146 -0.35263,4.33023 -0.45704,6.5 -0.0178,0.5071 -0.0497,1.36925 -0.0582,2.01396 -0.14319,5.96911 0.23566,11.8877 1.09767,17.82909 0.36022,2.18753 0.60324,4.4174 1.23815,6.54401 0.38173,0.65803 1.26607,0.70313 1.94819,0.63662 16.71433,-0.0377 33.42892,-0.005 50.14336,-0.0173 4.45183,-1.8e-4 8.90365,-3.6e-4 13.35547,-5.5e-4 0.19982,-0.46579 0.77048,-0.83717 0.43946,-1.35156 -4.89255,-9.46307 -6.18517,-20.65083 -3.98605,-31.04517 2.24132,-10.7743 8.53531,-20.57867 17.22628,-27.29663 6.11376,-4.77933 13.43393,-7.97291 21.09169,-9.22302 12.1525,-2.05325 25.08316,0.8897 35.07695,8.12575 9.58736,6.78657 16.49293,17.28419 18.77728,28.82073 2.05675,9.96268 0.84159,20.60957 -3.61389,29.77264 -0.12728,0.51727 -0.89988,1.127 -0.3457,1.66015 0.17277,0.68656 0.80316,0.60371 1.37302,0.56946 12.78614,-0.0752 25.57269,-0.0113 38.35901,-0.037 8.44319,-0.002 16.88882,-0.0124 25.33047,-0.0305 0.88512,-0.32316 1.01033,-1.30783 1.11293,-2.11503 0.4283,-2.30171 0.76867,-4.4633 1.08824,-6.79708 2.59993,-19.86671 -0.54618,-40.50613 -8.83092,-58.80541 -7.43426,-16.59611 -19.07097,-31.278521 -33.5304,-42.30737 -5.18411,-3.969505 -10.72159,-7.474418 -16.52344,-10.469254 -0.71858,-0.361651 -1.7003,-0.860499 -2.52682,-1.257458 -2.78059,-1.342543 -5.67185,-2.593306 -8.47807,-3.670739 -9.98255,-3.854564 -20.54006,-6.186158 -31.20605,-7.005397 -0.99382,-0.06934 -2.2424,-0.151494 -3.33399,-0.203125 -1.19818,-0.05062 -2.64656,-0.103534 -3.94372,-0.113143 -0.90093,-0.01503 -1.80178,-0.0066 -2.70276,-0.0021 z" />
        <path
           id="path73"
           style="display:inline;fill:#00a3ff;fill-opacity:1;stroke:#000000;stroke-width:1;stroke-linecap:square;stroke-linejoin:bevel;stroke-miterlimit:2.6;stroke-dasharray:none;stroke-opacity:1;paint-order:markers stroke fill"
           d="m 743.81445,52.052734 c -8.50843,0.163853 -16.99456,1.401915 -25.19726,3.667969 -0.68295,0.204626 -1.66885,0.467841 -2.46434,0.718609 -16.55536,4.986842 -31.81955,14.224833 -43.8302,26.672488 -4.30717,4.434286 -8.19853,9.269754 -11.63515,14.407731 -0.2844,0.432997 -0.76468,1.153903 -1.05537,1.618478 -4.14409,6.456781 -7.55732,13.380921 -10.16924,20.594411 -0.37617,1.06083 -0.83081,2.35887 -1.19704,3.52584 -2.78264,8.64935 -4.3411,17.68097 -4.72874,26.75541 -0.0248,0.77047 -0.0663,1.8456 -0.0708,2.7339 -0.0789,5.37854 0.28175,10.7631 1.06688,16.08446 16.01888,-0.0116 32.03776,-0.0162 48.05664,-0.0117 -4.14825,-15.21128 -1.48072,-32.21497 7.46592,-45.24383 8.64391,-12.85143 22.8949,-21.83533 38.28436,-23.813243 15.27634,-2.091675 31.38616,2.531043 43.08575,12.612053 10.71544,9.079 17.82057,22.37148 19.12656,36.38146 0.68243,6.71687 0.14157,13.56175 -1.62665,20.07919 16.01496,-0.0257 32.02995,-0.0232 48.04492,-0.043 0.58409,-3.8897 0.92056,-7.68017 1.04631,-11.62918 0.16493,-5.37198 -0.1075,-10.75624 -0.80021,-16.08567 -0.21734,-1.62572 -0.49598,-3.45939 -0.80988,-5.15604 -2.40496,-13.17161 -7.51528,-25.99286 -14.73309,-37.142783 -2.76616,-4.283166 -5.85457,-8.356915 -9.22852,-12.179688 -0.63093,-0.698442 -1.44034,-1.601308 -2.1654,-2.358529 C 805.90855,68.93666 786.72258,58.220158 766.13141,54.093242 758.79518,52.60678 751.2977,51.944561 743.81445,52.052734 Z" />
        <path
           id="path74"
           style="display:inline;fill:#00d9ff;fill-opacity:1;stroke:#000000;stroke-width:1;stroke-linecap:square;stroke-linejoin:bevel;stroke-miterlimit:2.6;stroke-dasharray:none;stroke-opacity:1;paint-order:markers stroke fill"
           d="m 744.04688,60.052734 c -7.78732,0.145465 -15.68138,1.298689 -23.11329,3.332032 -11.41214,3.103148 -22.34941,8.481496 -31.74023,15.49414 -18.14419,13.548335 -31.1114,33.844174 -35.73215,56.016634 -1.57828,7.46407 -2.24041,15.34263 -1.91353,23.05513 0.0348,0.96147 0.0968,1.92138 0.15935,2.88136 10.4349,-0.004 20.86979,-0.008 31.30469,-0.0117 -1.69107,-16.35421 3.19177,-33.37511 13.6653,-46.10052 11.1555,-13.82922 28.34954,-22.697316 46.14242,-23.38044 17.63227,-0.82757 35.54684,6.052323 47.8719,18.73552 11.49163,11.63131 18.26389,27.85976 18.13811,44.23802 0.005,2.17558 -0.10467,4.35096 -0.32554,6.51523 10.4375,-0.009 20.875,-0.0182 31.3125,-0.0273 0.25066,-3.49771 0.30366,-7.1997 0.16015,-10.58008 -0.0707,-1.64 -0.18953,-3.27739 -0.33789,-4.91211 -0.0522,-0.45109 -0.13562,-1.32626 -0.18823,-1.78447 -0.18958,-1.64042 -0.40738,-3.17086 -0.66318,-4.704 -2.99985,-18.08336 -11.42547,-35.21775 -23.90249,-48.644339 -0.72335,-0.765506 -1.62083,-1.716246 -2.44259,-2.527386 -13.67724,-13.633985 -31.58814,-23.01816 -50.65417,-26.217163 -3.14987,-0.543373 -6.36122,-0.926716 -9.47811,-1.143804 -2.69472,-0.195564 -5.47112,-0.270302 -8.26302,-0.234694 z" />
        <path
           id="path75"
           style="display:inline;fill:#89fffc;fill-opacity:1;stroke:#000000;stroke-width:1;stroke-linecap:square;stroke-linejoin:bevel;stroke-miterlimit:2.6;stroke-dasharray:none;stroke-opacity:1;paint-order:markers stroke fill"
           d="m 744.26562,68.052734 c -5.30382,0.106601 -10.59695,0.697284 -15.79492,1.75586 -1.06706,0.219085 -2.38148,0.517034 -3.53542,0.805767 -9.16182,2.29343 -17.9461,6.084942 -25.89817,11.180561 -1.00965,0.642815 -2.20752,1.447801 -3.26299,2.194872 -16.4982,11.667743 -28.61669,29.337836 -33.63154,48.906686 -0.14987,0.60808 -0.38275,1.52866 -0.54943,2.26422 -0.54856,2.42095 -0.99587,4.91614 -1.3217,7.29088 -0.46336,3.43994 -0.74295,6.90695 -0.78122,10.3785 5.07292,-0.003 10.14584,-0.005 15.21875,-0.008 0.36132,-17.56525 7.40411,-34.98544 19.69184,-47.59391 13.50081,-14.115861 32.99477,-22.445135 52.56936,-21.927722 20.01131,0.319296 39.79146,9.460175 52.73225,24.777072 10.61615,12.3532 16.83223,28.44501 17.12179,44.7426 5.07161,-0.004 10.14323,-0.008 15.21484,-0.0117 -0.0779,-4.81371 -0.56792,-9.61861 -1.44726,-14.35156 -0.0784,-0.4088 -0.23673,-1.19344 -0.34571,-1.74609 -2.27053,-10.91439 -6.77483,-21.49114 -12.95507,-30.65625 -1.4411,-2.14014 -2.98607,-4.22036 -4.56717,-6.169492 -8.19488,-10.075339 -18.71348,-18.23165 -30.47385,-23.732854 -0.57348,-0.253793 -1.42939,-0.660136 -2.12403,-0.953724 -11.25951,-4.952504 -23.57663,-7.286393 -35.86035,-7.145886 z" />
      </g>
      <g
         id="g80"
         inkscape:label="Side"
         style="display:inline">
        <path
           id="path76"
           style="fill:#b6003d;fill-opacity:1;stroke:#000000;stroke-linecap:round;stroke-linejoin:round;stroke-miterlimit:2.6;stroke-opacity:1;paint-order:markers stroke fill"
           d="m 627.61443,154.13958 c 9e-5,65.37559 49.17394,118.18178 114.54953,118.18187 v -82.71059 c -65.48994,-0.001 -35.91309,-109.160012 0,-153.609962 -65.3756,9e-5 -114.54945,52.76308 -114.54953,118.138682 z"
           sodipodi:nodetypes="ccccc" />
        <path
           id="path77"
           style="fill:#ff1e79;fill-opacity:1;stroke:#000000;stroke-linecap:square;stroke-linejoin:bevel;stroke-miterlimit:2.6;stroke-opacity:1;paint-order:markers stroke fill"
           d="m 725.92188,45.199219 c -7.07257,1.057697 -14.04409,2.809069 -20.75391,5.287109 -0.83559,0.318935 -1.93868,0.734404 -2.86845,1.110191 -16.09305,6.470414 -30.49198,17.067499 -41.4669,30.498492 -10.1086,12.249876 -17.38289,26.768939 -21.39317,42.123739 -0.22333,0.8949 -0.5296,2.06203 -0.75572,3.0684 -2.36492,10.09056 -3.34517,20.49576 -2.99818,30.85152 0.0657,1.9777 0.18696,4.15385 0.36501,6.20316 0.25624,2.99802 0.62112,5.96781 1.09648,8.88126 0.53669,3.34947 1.22998,6.68684 2.04662,9.9138 4.48737,17.84084 13.4304,34.58136 25.98603,48.04866 0.71832,0.76088 1.61728,1.7073 2.42913,2.51777 8.48786,8.51955 18.45626,15.56494 29.33845,20.6873 1.1071,0.51171 2.43454,1.12247 3.65108,1.62692 10.64205,4.50846 22.04127,7.18952 33.56571,8.01176 0,-22.31185 0,-44.6237 0,-66.93555 -8.86544,-1.18867 -17.58953,-4.80533 -24.01304,-11.14635 -6.86549,-6.66272 -11.00792,-15.69891 -12.95749,-24.97132 -2.63042,-12.19851 -2.11284,-24.84296 -0.38076,-37.12758 2.67707,-18.26356 8.29657,-36.005682 15.63513,-52.909804 3.89336,-8.878548 8.36404,-17.509879 13.4896,-25.74143 z" />
        <path
           id="path78"
           style="fill:#ff5b87;fill-opacity:1;stroke:#000000;stroke-linecap:square;stroke-linejoin:bevel;stroke-miterlimit:2.6;stroke-opacity:1;paint-order:markers stroke fill"
           d="m 708.74414,57.697266 c -17.77772,6.38886 -33.58525,18.142256 -44.77273,33.369672 -9.9334,13.383932 -16.42332,29.243942 -18.98957,45.698592 -0.66336,4.14409 -1.07616,8.3268 -1.25332,12.51963 -0.0466,1.2041 -0.0915,2.65904 -0.0959,3.96208 -0.0139,2.06261 0.0179,4.24685 0.12068,6.19204 0.0641,1.29514 0.12345,2.38947 0.23371,3.69756 0.11803,1.4807 0.27274,2.95813 0.44461,4.43347 0.12137,0.95368 0.27923,2.15798 0.43555,3.20313 0.17175,1.11482 0.39346,2.47682 0.62155,3.68282 3.77842,20.62281 13.86389,40.14932 28.96824,54.75248 11.37854,11.08431 25.56664,19.25158 40.87842,23.48781 3.56139,0.98941 7.17856,1.7769 10.82866,2.36009 0,-17.13476 0,-34.26953 0,-51.4043 -9.98872,-2.60416 -19.28313,-8.27006 -25.64892,-16.46387 -6.78513,-8.49091 -10.53146,-19.05481 -12.0831,-29.72566 -2.11572,-14.21983 -0.81182,-28.71697 1.83076,-42.77426 3.81695,-19.730635 10.65807,-38.804528 19.48083,-56.833286 0.684,-0.915487 -0.25778,-0.402913 -0.82608,-0.218392 l -0.0944,0.03289 z" />
        <path
           id="path79"
           style="fill:#ff8fbf;fill-opacity:1;stroke:#000000;stroke-linecap:square;stroke-linejoin:bevel;stroke-miterlimit:2.6;stroke-opacity:1;paint-order:markers stroke fill"
           d="m 693.61328,74.050781 c -0.81748,0.530396 -1.78234,1.171378 -2.48794,1.667049 -1.29624,0.905007 -2.55694,1.819825 -3.84954,2.830092 -7.87166,6.119516 -14.70785,13.569024 -20.1215,21.942308 -0.53063,0.81959 -1.18728,1.8722 -1.73962,2.80083 -4.69143,7.79978 -8.20601,16.29223 -10.5182,25.09175 -0.11403,0.48041 -0.32426,1.26161 -0.43999,1.75487 -1.54915,6.39934 -2.4629,12.9516 -2.72993,19.53029 -0.0393,1.01993 -0.0752,2.31118 -0.0846,3.43576 -0.085,8.53004 0.86737,17.07506 2.88537,25.36502 0.23651,0.93072 0.53881,2.1223 0.83225,3.14641 3.82213,13.66747 10.69437,26.49387 20.12479,37.11336 0.64231,0.70899 1.46325,1.61897 2.20203,2.38335 10.97517,11.49732 25.11346,19.95654 40.47765,24.06196 0,-11.89453 0,-23.78906 0,-35.6836 -11.11604,-4.16385 -20.91389,-11.9076 -27.25165,-21.97528 -6.66025,-10.27069 -9.9877,-22.38933 -11.05941,-34.50037 -1.40687,-15.43228 0.54317,-30.97295 3.86573,-46.04408 2.54718,-11.296995 6.0274,-22.375957 10.26174,-33.152141 -0.1224,0.07747 -0.24479,0.154948 -0.36719,0.232422 z" />
        <path
           id="path80"
           style="fill:#ffbddf;fill-opacity:1;stroke:#000000;stroke-linecap:square;stroke-linejoin:bevel;stroke-miterlimit:2.6;stroke-opacity:1;paint-order:markers stroke fill"
           d="m 676.59375,100.90234 c -3.79987,5.18688 -6.99627,10.81058 -9.54883,16.71094 -0.3386,0.78548 -0.77503,1.84374 -1.13086,2.74219 -3.88386,9.87873 -5.96291,20.44778 -6.23437,31.05469 -0.0323,1.37293 -0.0492,2.97856 -0.0213,4.44214 0.20853,14.00907 3.59543,28.1953 10.18991,40.68028 0.51382,0.98381 1.02413,1.9117 1.53584,2.8021 1.45574,2.55632 3.0574,5.02765 4.76425,7.42313 0.32674,0.4314 0.83516,1.15036 1.24801,1.68312 8.4298,11.19016 19.84831,20.11078 32.76761,25.53759 0,-6.40235 0,-12.80469 0,-19.20704 -12.18854,-5.81389 -22.43372,-15.61192 -28.72656,-27.5664 -6.58805,-12.16606 -9.46066,-26.03417 -9.95117,-39.77539 -0.58324,-15.92245 1.85297,-31.80618 5.63672,-47.23438 -0.17644,0.23568 -0.35287,0.47136 -0.5293,0.70703 z" />
      </g>
    </g>
    <g
       id="g92"
       inkscape:label="Top"
       transform="rotate(180,747.05491,245.06402)">
      <g
         id="g86"
         inkscape:label="Surface">
        <path
           id="path82"
           style="fill:#007b9c;fill-opacity:1;fill-rule:evenodd;stroke:#000000;stroke-width:1;stroke-linecap:butt;stroke-linejoin:round;stroke-miterlimit:2.6;stroke-dasharray:none;stroke-opacity:1;paint-order:markers stroke fill"
           d="m 745.75522,35.998778 a 118.37321,118.37321 0 0 0 -118.37305,118.373052 118.37321,118.37321 0 0 0 4.16407,30.44922 h 89.65625 a 39.135632,39.135632 0 0 1 -14.58399,-30.44922 39.135632,39.135632 0 0 1 39.13672,-39.13477 39.135632,39.135632 0 0 1 39.13477,39.13477 39.135632,39.135632 0 0 1 -14.58399,30.44922 h 89.65817 a 118.37321,118.37321 0 0 0 4.1641,-30.44922 A 118.37321,118.37321 0 0 0 745.75522,35.998778 Z" />
        <path
           id="path83"
           style="fill:#007fc4;fill-opacity:1;stroke:#000000;stroke-width:1;stroke-linecap:square;stroke-linejoin:bevel;stroke-miterlimit:2.6;stroke-dasharray:none;stroke-opacity:1;paint-order:markers stroke fill"
           d="m 744.10547,44.039062 c -1.11918,0.02128 -2.08166,0.04896 -3.19922,0.09375 -0.97852,0.04951 -2.22023,0.116062 -3.29896,0.201701 -8.66423,0.632431 -17.24374,2.333359 -25.51549,4.981893 -1.02475,0.336509 -2.29559,0.759414 -3.40453,1.155268 -3.68514,1.313078 -7.2991,2.822663 -10.82985,4.506842 -0.46002,0.234205 -1.22969,0.597461 -1.81083,0.893884 -13.25556,6.667942 -25.12888,16.059343 -34.6755,27.418616 -0.39203,0.488608 -1.00072,1.199103 -1.4679,1.789553 -11.03571,13.682192 -18.79462,30.010251 -22.25866,47.253411 -0.0942,0.51662 -0.26393,1.37536 -0.38707,2.02311 -0.55315,2.94934 -0.9833,6.04989 -1.27308,8.95736 -0.2208,2.16146 -0.35263,4.33023 -0.45704,6.5 -0.0178,0.5071 -0.0497,1.36925 -0.0582,2.01396 -0.14319,5.96911 0.23566,11.8877 1.09767,17.82909 0.36022,2.18753 0.60324,4.4174 1.23815,6.54401 0.38173,0.65803 1.26607,0.70313 1.94819,0.63662 16.71433,-0.0377 33.42892,-0.005 50.14336,-0.0173 4.45183,-1.8e-4 8.90365,-3.6e-4 13.35547,-5.5e-4 0.19982,-0.46579 0.77048,-0.83717 0.43946,-1.35156 -4.89255,-9.46307 -6.18517,-20.65083 -3.98605,-31.04517 2.24132,-10.7743 8.53531,-20.57867 17.22628,-27.29663 6.11376,-4.77933 13.43393,-7.97291 21.09169,-9.22302 12.1525,-2.05325 25.08316,0.8897 35.07695,8.12575 9.58736,6.78657 16.49293,17.28419 18.77728,28.82073 2.05675,9.96268 0.84159,20.60957 -3.61389,29.77264 -0.12728,0.51727 -0.89988,1.127 -0.3457,1.66015 0.17277,0.68656 0.80316,0.60371 1.37302,0.56946 12.78614,-0.0752 25.57269,-0.0113 38.35901,-0.037 8.44319,-0.002 16.88882,-0.0124 25.33047,-0.0305 0.88512,-0.32316 1.01033,-1.30783 1.11293,-2.11503 0.4283,-2.30171 0.76867,-4.4633 1.08824,-6.79708 2.59993,-19.86671 -0.54618,-40.50613 -8.83092,-58.80541 -7.43426,-16.59611 -19.07097,-31.278521 -33.5304,-42.30737 -5.18411,-3.969505 -10.72159,-7.474418 -16.52344,-10.469254 -0.71858,-0.361651 -1.7003,-0.860499 -2.52682,-1.257458 -2.78059,-1.342543 -5.67185,-2.593306 -8.47807,-3.670739 -9.98255,-3.854564 -20.54006,-6.186158 -31.20605,-7.005397 -0.99382,-0.06934 -2.2424,-0.151494 -3.33399,-0.203125 -1.19818,-0.05062 -2.64656,-0.103534 -3.94372,-0.113143 -0.90093,-0.01503 -1.80178,-0.0066 -2.70276,-0.0021 z" />
        <path
           id="path84"
           style="display:inline;fill:#00a3ff;fill-opacity:1;stroke:#000000;stroke-width:1;stroke-linecap:square;stroke-linejoin:bevel;stroke-miterlimit:2.6;stroke-dasharray:none;stroke-opacity:1;paint-order:markers stroke fill"
           d="m 743.81445,52.052734 c -8.50843,0.163853 -16.99456,1.401915 -25.19726,3.667969 -0.68295,0.204626 -1.66885,0.467841 -2.46434,0.718609 -16.55536,4.986842 -31.81955,14.224833 -43.8302,26.672488 -4.30717,4.434286 -8.19853,9.269754 -11.63515,14.407731 -0.2844,0.432997 -0.76468,1.153903 -1.05537,1.618478 -4.14409,6.456781 -7.55732,13.380921 -10.16924,20.594411 -0.37617,1.06083 -0.83081,2.35887 -1.19704,3.52584 -2.78264,8.64935 -4.3411,17.68097 -4.72874,26.75541 -0.0248,0.77047 -0.0663,1.8456 -0.0708,2.7339 -0.0789,5.37854 0.28175,10.7631 1.06688,16.08446 16.01888,-0.0116 32.03776,-0.0162 48.05664,-0.0117 -4.14825,-15.21128 -1.48072,-32.21497 7.46592,-45.24383 8.64391,-12.85143 22.8949,-21.83533 38.28436,-23.813243 15.27634,-2.091675 31.38616,2.531043 43.08575,12.612053 10.71544,9.079 17.82057,22.37148 19.12656,36.38146 0.68243,6.71687 0.14157,13.56175 -1.62665,20.07919 16.01496,-0.0257 32.02995,-0.0232 48.04492,-0.043 0.58409,-3.8897 0.92056,-7.68017 1.04631,-11.62918 0.16493,-5.37198 -0.1075,-10.75624 -0.80021,-16.08567 -0.21734,-1.62572 -0.49598,-3.45939 -0.80988,-5.15604 -2.40496,-13.17161 -7.51528,-25.99286 -14.73309,-37.142783 -2.76616,-4.283166 -5.85457,-8.356915 -9.22852,-12.179688 -0.63093,-0.698442 -1.44034,-1.601308 -2.1654,-2.358529 C 805.90855,68.93666 786.72258,58.220158 766.13141,54.093242 758.79518,52.60678 751.2977,51.944561 743.81445,52.052734 Z" />
        <path
           id="path85"
           style="display:inline;fill:#00d9ff;fill-opacity:1;stroke:#000000;stroke-width:1;stroke-linecap:square;stroke-linejoin:bevel;stroke-miterlimit:2.6;stroke-dasharray:none;stroke-opacity:1;paint-order:markers stroke fill"
           d="m 744.04688,60.052734 c -7.78732,0.145465 -15.68138,1.298689 -23.11329,3.332032 -11.41214,3.103148 -22.34941,8.481496 -31.74023,15.49414 -18.14419,13.548335 -31.1114,33.844174 -35.73215,56.016634 -1.57828,7.46407 -2.24041,15.34263 -1.91353,23.05513 0.0348,0.96147 0.0968,1.92138 0.15935,2.88136 10.4349,-0.004 20.86979,-0.008 31.30469,-0.0117 -1.69107,-16.35421 3.19177,-33.37511 13.6653,-46.10052 11.1555,-13.82922 28.34954,-22.697316 46.14242,-23.38044 17.63227,-0.82757 35.54684,6.052323 47.8719,18.73552 11.49163,11.63131 18.26389,27.85976 18.13811,44.23802 0.005,2.17558 -0.10467,4.35096 -0.32554,6.51523 10.4375,-0.009 20.875,-0.0182 31.3125,-0.0273 0.25066,-3.49771 0.30366,-7.1997 0.16015,-10.58008 -0.0707,-1.64 -0.18953,-3.27739 -0.33789,-4.91211 -0.0522,-0.45109 -0.13562,-1.32626 -0.18823,-1.78447 -0.18958,-1.64042 -0.40738,-3.17086 -0.66318,-4.704 -2.99985,-18.08336 -11.42547,-35.21775 -23.90249,-48.644339 -0.72335,-0.765506 -1.62083,-1.716246 -2.44259,-2.527386 -13.67724,-13.633985 -31.58814,-23.01816 -50.65417,-26.217163 -3.14987,-0.543373 -6.36122,-0.926716 -9.47811,-1.143804 -2.69472,-0.195564 -5.47112,-0.270302 -8.26302,-0.234694 z" />
        <path
           id="path86"
           style="display:inline;fill:#89fffc;fill-opacity:1;stroke:#000000;stroke-width:1;stroke-linecap:square;stroke-linejoin:bevel;stroke-miterlimit:2.6;stroke-dasharray:none;stroke-opacity:1;paint-order:markers stroke fill"
           d="m 744.26562,68.052734 c -5.30382,0.106601 -10.59695,0.697284 -15.79492,1.75586 -1.06706,0.219085 -2.38148,0.517034 -3.53542,0.805767 -9.16182,2.29343 -17.9461,6.084942 -25.89817,11.180561 -1.00965,0.642815 -2.20752,1.447801 -3.26299,2.194872 -16.4982,11.667743 -28.61669,29.337836 -33.63154,48.906686 -0.14987,0.60808 -0.38275,1.52866 -0.54943,2.26422 -0.54856,2.42095 -0.99587,4.91614 -1.3217,7.29088 -0.46336,3.43994 -0.74295,6.90695 -0.78122,10.3785 5.07292,-0.003 10.14584,-0.005 15.21875,-0.008 0.36132,-17.56525 7.40411,-34.98544 19.69184,-47.59391 13.50081,-14.115861 32.99477,-22.445135 52.56936,-21.927722 20.01131,0.319296 39.79146,9.460175 52.73225,24.777072 10.61615,12.3532 16.83223,28.44501 17.12179,44.7426 5.07161,-0.004 10.14323,-0.008 15.21484,-0.0117 -0.0779,-4.81371 -0.56792,-9.61861 -1.44726,-14.35156 -0.0784,-0.4088 -0.23673,-1.19344 -0.34571,-1.74609 -2.27053,-10.91439 -6.77483,-21.49114 -12.95507,-30.65625 -1.4411,-2.14014 -2.98607,-4.22036 -4.56717,-6.169492 -8.19488,-10.075339 -18.71348,-18.23165 -30.47385,-23.732854 -0.57348,-0.253793 -1.42939,-0.660136 -2.12403,-0.953724 -11.25951,-4.952504 -23.57663,-7.286393 -35.86035,-7.145886 z" />
      </g>
      <g
         id="g91"
         inkscape:label="Side"
         style="display:inline">
        <path
           id="path87"
           style="fill:#b6003d;fill-opacity:1;stroke:#000000;stroke-linecap:round;stroke-linejoin:round;stroke-miterlimit:2.6;stroke-opacity:1;paint-order:markers stroke fill"
           d="m 627.61443,154.13958 c 9e-5,65.37559 49.17394,118.18178 114.54953,118.18187 v -82.71059 c -65.48994,-0.001 -35.91309,-109.160012 0,-153.609962 -65.3756,9e-5 -114.54945,52.76308 -114.54953,118.138682 z"
           sodipodi:nodetypes="ccccc" />
        <path
           id="path88"
           style="fill:#ff1e79;fill-opacity:1;stroke:#000000;stroke-linecap:square;stroke-linejoin:bevel;stroke-miterlimit:2.6;stroke-opacity:1;paint-order:markers stroke fill"
           d="m 725.92188,45.199219 c -7.07257,1.057697 -14.04409,2.809069 -20.75391,5.287109 -0.83559,0.318935 -1.93868,0.734404 -2.86845,1.110191 -16.09305,6.470414 -30.49198,17.067499 -41.4669,30.498492 -10.1086,12.249876 -17.38289,26.768939 -21.39317,42.123739 -0.22333,0.8949 -0.5296,2.06203 -0.75572,3.0684 -2.36492,10.09056 -3.34517,20.49576 -2.99818,30.85152 0.0657,1.9777 0.18696,4.15385 0.36501,6.20316 0.25624,2.99802 0.62112,5.96781 1.09648,8.88126 0.53669,3.34947 1.22998,6.68684 2.04662,9.9138 4.48737,17.84084 13.4304,34.58136 25.98603,48.04866 0.71832,0.76088 1.61728,1.7073 2.42913,2.51777 8.48786,8.51955 18.45626,15.56494 29.33845,20.6873 1.1071,0.51171 2.43454,1.12247 3.65108,1.62692 10.64205,4.50846 22.04127,7.18952 33.56571,8.01176 0,-22.31185 0,-44.6237 0,-66.93555 -8.86544,-1.18867 -17.58953,-4.80533 -24.01304,-11.14635 -6.86549,-6.66272 -11.00792,-15.69891 -12.95749,-24.97132 -2.63042,-12.19851 -2.11284,-24.84296 -0.38076,-37.12758 2.67707,-18.26356 8.29657,-36.005682 15.63513,-52.909804 3.89336,-8.878548 8.36404,-17.509879 13.4896,-25.74143 z" />
        <path
           id="path89"
           style="fill:#ff5b87;fill-opacity:1;stroke:#000000;stroke-linecap:square;stroke-linejoin:bevel;stroke-miterlimit:2.6;stroke-opacity:1;paint-order:markers stroke fill"
           d="m 708.74414,57.697266 c -17.77772,6.38886 -33.58525,18.142256 -44.77273,33.369672 -9.9334,13.383932 -16.42332,29.243942 -18.98957,45.698592 -0.66336,4.14409 -1.07616,8.3268 -1.25332,12.51963 -0.0466,1.2041 -0.0915,2.65904 -0.0959,3.96208 -0.0139,2.06261 0.0179,4.24685 0.12068,6.19204 0.0641,1.29514 0.12345,2.38947 0.23371,3.69756 0.11803,1.4807 0.27274,2.95813 0.44461,4.43347 0.12137,0.95368 0.27923,2.15798 0.43555,3.20313 0.17175,1.11482 0.39346,2.47682 0.62155,3.68282 3.77842,20.62281 13.86389,40.14932 28.96824,54.75248 11.37854,11.08431 25.56664,19.25158 40.87842,23.48781 3.56139,0.98941 7.17856,1.7769 10.82866,2.36009 0,-17.13476 0,-34.26953 0,-51.4043 -9.98872,-2.60416 -19.28313,-8.27006 -25.64892,-16.46387 -6.78513,-8.49091 -10.53146,-19.05481 -12.0831,-29.72566 -2.11572,-14.21983 -0.81182,-28.71697 1.83076,-42.77426 3.81695,-19.730635 10.65807,-38.804528 19.48083,-56.833286 0.684,-0.915487 -0.25778,-0.402913 -0.82608,-0.218392 l -0.0944,0.03289 z" />
        <path
           id="path90"
           style="fill:#ff8fbf;fill-opacity:1;stroke:#000000;stroke-linecap:square;stroke-linejoin:bevel;stroke-miterlimit:2.6;stroke-opacity:1;paint-order:markers stroke fill"
           d="m 693.61328,74.050781 c -0.81748,0.530396 -1.78234,1.171378 -2.48794,1.667049 -1.29624,0.905007 -2.55694,1.819825 -3.84954,2.830092 -7.87166,6.119516 -14.70785,13.569024 -20.1215,21.942308 -0.53063,0.81959 -1.18728,1.8722 -1.73962,2.80083 -4.69143,7.79978 -8.20601,16.29223 -10.5182,25.09175 -0.11403,0.48041 -0.32426,1.26161 -0.43999,1.75487 -1.54915,6.39934 -2.4629,12.9516 -2.72993,19.53029 -0.0393,1.01993 -0.0752,2.31118 -0.0846,3.43576 -0.085,8.53004 0.86737,17.07506 2.88537,25.36502 0.23651,0.93072 0.53881,2.1223 0.83225,3.14641 3.82213,13.66747 10.69437,26.49387 20.12479,37.11336 0.64231,0.70899 1.46325,1.61897 2.20203,2.38335 10.97517,11.49732 25.11346,19.95654 40.47765,24.06196 0,-11.89453 0,-23.78906 0,-35.6836 -11.11604,-4.16385 -20.91389,-11.9076 -27.25165,-21.97528 -6.66025,-10.27069 -9.9877,-22.38933 -11.05941,-34.50037 -1.40687,-15.43228 0.54317,-30.97295 3.86573,-46.04408 2.54718,-11.296995 6.0274,-22.375957 10.26174,-33.152141 -0.1224,0.07747 -0.24479,0.154948 -0.36719,0.232422 z" />
        <path
           id="path91"
           style="fill:#ffbddf;fill-opacity:1;stroke:#000000;stroke-linecap:square;stroke-linejoin:bevel;stroke-miterlimit:2.6;stroke-opacity:1;paint-order:markers stroke fill"
           d="m 676.59375,100.90234 c -3.79987,5.18688 -6.99627,10.81058 -9.54883,16.71094 -0.3386,0.78548 -0.77503,1.84374 -1.13086,2.74219 -3.88386,9.87873 -5.96291,20.44778 -6.23437,31.05469 -0.0323,1.37293 -0.0492,2.97856 -0.0213,4.44214 0.20853,14.00907 3.59543,28.1953 10.18991,40.68028 0.51382,0.98381 1.02413,1.9117 1.53584,2.8021 1.45574,2.55632 3.0574,5.02765 4.76425,7.42313 0.32674,0.4314 0.83516,1.15036 1.24801,1.68312 8.4298,11.19016 19.84831,20.11078 32.76761,25.53759 0,-6.40235 0,-12.80469 0,-19.20704 -12.18854,-5.81389 -22.43372,-15.61192 -28.72656,-27.5664 -6.58805,-12.16606 -9.46066,-26.03417 -9.95117,-39.77539 -0.58324,-15.92245 1.85297,-31.80618 5.63672,-47.23438 -0.17644,0.23568 -0.35287,0.47136 -0.5293,0.70703 z" />
      </g>
    </g>
  </g>
</svg>
