<?xml version="1.0" encoding="UTF-8" standalone="no"?>
<!DOCTYPE svg PUBLIC "-//W3C//DTD SVG 1.1//EN"
 "http://www.w3.org/Graphics/SVG/1.1/DTD/svg11.dtd">
<!-- Generated by graphviz version 14.1.2 (20260124.0452)
 -->
<!-- Title: src/include/stroid/topology/mapping.h Pages: 1 -->
<svg width="437pt" height="160pt"
 viewBox="0.00 0.00 437.00 160.00" xmlns="http://www.w3.org/2000/svg" xmlns:xlink="http://www.w3.org/1999/xlink">

<svg id="main" version="1.1" xmlns="http://www.w3.org/2000/svg" xmlns:xlink="http://www.w3.org/1999/xlink" xml:space="preserve">

<style type="text/css"><![CDATA[
.node, .edge {opacity: 0.7;}
.node.selected, .edge.selected {opacity: 1;}
.edge:hover path { stroke: red; }
.edge:hover polygon { stroke: red; fill: red; }
]]></style>
<script type="application/ecmascript" xlink:href="svg.min.js"/>
<svg id="graph" class="graph">
<g id="graph0" class="graph" transform="scale(1 1) rotate(0) translate(4 156.25)">
<title>src/include/stroid/topology/mapping.h</title>
<!-- Node1 -->
<g id="Node000001" class="node">
<title>Node1</title>
<g id="a_Node000001"><a xlink:title=" ">
<polygon fill="#999999" stroke="#666666" points="248.62,-152.25 144.88,-152.25 144.88,-121.75 248.62,-121.75 248.62,-152.25"/>
<text xml:space="preserve" text-anchor="start" x="152.88" y="-138.75" font-family="Helvetica,sans-Serif" font-size="10.00">src/include/stroid</text>
<text xml:space="preserve" text-anchor="middle" x="196.75" y="-127.5" font-family="Helvetica,sans-Serif" font-size="10.00">/topology/mapping.h</text>
</a>
</g>
</g>
<!-- Node2 -->
<g id="Node000002" class="node">
<title>Node2</title>
<g id="a_Node000002"><a xlink:href="stroid_8h.html" target="_top" xlink:title=" ">
<polygon fill="white" stroke="#666666" points="104.88,-85.75 14.62,-85.75 14.62,-55.25 104.88,-55.25 104.88,-85.75"/>
<text xml:space="preserve" text-anchor="start" x="22.62" y="-72.25" font-family="Helvetica,sans-Serif" font-size="10.00">src/include/stroid</text>
<text xml:space="preserve" text-anchor="middle" x="59.75" y="-61" font-family="Helvetica,sans-Serif" font-size="10.00">/stroid.h</text>
</a>
</g>
</g>
<!-- Node1&#45;&gt;Node2 -->
<g id="edge1_Node000001_Node000002" class="edge">
<title>Node1&#45;&gt;Node2</title>
<g id="a_edge1_Node000001_Node000002"><a xlink:title=" ">
<path fill="none" stroke="#63b8ff" d="M155.5,-116.58C134.69,-106.78 109.87,-95.1 90.71,-86.08"/>
<polygon fill="#63b8ff" stroke="#63b8ff" points="153.75,-119.63 164.29,-120.72 156.74,-113.29 153.75,-119.63"/>
</a>
</g>
</g>
<!-- Node4 -->
<g id="Node000004" class="node">
<title>Node4</title>
<g id="a_Node000004"><a xlink:href="curvilinear_8cpp.html" target="_top" xlink:title=" ">
<polygon fill="white" stroke="#666666" points="270.38,-80.12 123.12,-80.12 123.12,-60.88 270.38,-60.88 270.38,-80.12"/>
<text xml:space="preserve" text-anchor="middle" x="196.75" y="-66.62" font-family="Helvetica,sans-Serif" font-size="10.00">src/lib/topology/curvilinear.cpp</text>
</a>
</g>
</g>
<!-- Node1&#45;&gt;Node4 -->
<g id="edge3_Node000001_Node000004" class="edge">
<title>Node1&#45;&gt;Node4</title>
<g id="a_edge3_Node000001_Node000004"><a xlink:title=" ">
<path fill="none" stroke="#63b8ff" d="M196.75,-110.09C196.75,-99.51 196.75,-88 196.75,-80.32"/>
<polygon fill="#63b8ff" stroke="#63b8ff" points="193.25,-109.85 196.75,-119.85 200.25,-109.85 193.25,-109.85"/>
</a>
</g>
</g>
<!-- Node5 -->
<g id="Node000005" class="node">
<title>Node5</title>
<g id="a_Node000005"><a xlink:href="mapping_8cpp.html" target="_top" xlink:title=" ">
<polygon fill="white" stroke="#666666" points="429,-80.12 288.5,-80.12 288.5,-60.88 429,-60.88 429,-80.12"/>
<text xml:space="preserve" text-anchor="middle" x="358.75" y="-66.62" font-family="Helvetica,sans-Serif" font-size="10.00">src/lib/topology/mapping.cpp</text>
</a>
</g>
</g>
<!-- Node1&#45;&gt;Node5 -->
<g id="edge4_Node000001_Node000005" class="edge">
<title>Node1&#45;&gt;Node5</title>
<g id="a_edge4_Node000001_Node000005"><a xlink:title=" ">
<path fill="none" stroke="#63b8ff" d="M243.89,-117.23C274.25,-105.15 312.34,-89.98 336.12,-80.51"/>
<polygon fill="#63b8ff" stroke="#63b8ff" points="242.91,-113.85 234.92,-120.8 245.5,-120.36 242.91,-113.85"/>
</a>
</g>
</g>
<!-- Node3 -->
<g id="Node000003" class="node">
<title>Node3</title>
<g id="a_Node000003"><a xlink:href="bindings_8cpp.html" target="_top" xlink:title=" ">
<polygon fill="white" stroke="#666666" points="119.5,-19.25 0,-19.25 0,0 119.5,0 119.5,-19.25"/>
<text xml:space="preserve" text-anchor="middle" x="59.75" y="-5.75" font-family="Helvetica,sans-Serif" font-size="10.00">src/python/bindings.cpp</text>
</a>
</g>
</g>
<!-- Node2&#45;&gt;Node3 -->
<g id="edge2_Node000002_Node000003" class="edge">
<title>Node2&#45;&gt;Node3</title>
<g id="a_edge2_Node000002_Node000003"><a xlink:title=" ">
<path fill="none" stroke="#63b8ff" d="M59.75,-43.48C59.75,-34.98 59.75,-26.09 59.75,-19.7"/>
<polygon fill="#63b8ff" stroke="#63b8ff" points="56.25,-43.43 59.75,-53.43 63.25,-43.43 56.25,-43.43"/>
</a>
</g>
</g>
</g>
</svg>
</svg>

<style type='text/css'>
<![CDATA[
[data-mouse-over-selected='false'] { opacity: 0.7; }
[data-mouse-over-selected='true']  { opacity: 1.0; }
]]>
</style>
<script type="application/ecmascript"><![CDATA[
document.addEventListener('DOMContentLoaded', (event) => {
  highlightEdges();
  highlightAdjacentNodes();
});
]]></script>
</svg>
